# xmcd
#
# Track frame offsets:
#	150
#	16150
#	29005
#	46530
#	62420
#	76440
#	89692
#	103100
#	118072
#	132962
#	143532
#	164100
#	176277
#	187417
#	200797
#	218395
#	230992
#	242700
#	253150
#	268042
#	280440
#	295602
#
# Disc length: 4124
#
# Revision: 1
# Processed by: cddbd v1.5.1PL0 Copyright (c) Steve Scherf et al.
# Submitted via: dBpowerAMP V4.0
# Normalized: r0:TDELIM( - )
#
DISCID=4e101a16
DTITLE=Various Artist - 100% Country (vol 1)
DYEAR=1900
DGENRE=Country
TTITLE0=Billy Jo Spears - Blanket On The Ground
TTITLE1=Kenny Rogers - Ruby, Don´t Take Your Love To Town
TTITLE2=Don Schlitz - The Gambler
TTITLE3=Willie Nelson - Always On My Mind
TTITLE4=Dolly Parton - I Will Always Love You
TTITLE5=Lynn Anderson - Rose Garden
TTITLE6=Glenn Cambell - Southern Nights
TTITLE7=Tanya Tucker - Delta Dawn
TTITLE8=Olivia-Newton John - Take Me Home Country Roads
TTITLE9=Kris Kristoffersen - Help Me Make It Through The Night
TTITLE10=Suzy Boguss - Take It To The Limit
TTITLE11=Tammy Wynette - Stand By Your Man
TTITLE12=Roger Miller - King Of The Road
TTITLE13=Patti Page - Tennessee Waltz
TTITLE14=Linda Ronstadt - Blue Bayou
TTITLE15=Don Williams - Some Broken Hearts Never Mend
TTITLE16=Johnny Cash - Ring Of Fire
TTITLE17=Skeeter Davis - I Walk The Line
TTITLE18=Connie Smith and Nat Stuckey - Let It Be Me (Je T´ Appartiens)
TTITLE19=Patsy Cline - Crazy
TTITLE20=Waylon Jennings and W. Nelson - (Sittin´ On) The Dock Of The Bay
TTITLE21=Jennings-Cash-Nelson-Kristoffersen - Highwayman
EXTD=My Name: Anders Tornby
EXTT0=
EXTT1=
EXTT2=
EXTT3=
EXTT4=
EXTT5=
EXTT6=
EXTT7=
EXTT8=
EXTT9=
EXTT10=
EXTT11=
EXTT12=
EXTT13=
EXTT14=
EXTT15=
EXTT16=
EXTT17=
EXTT18=
EXTT19=
EXTT20=
EXTT21=
PLAYORDER=
